# xmcd
#
# Track frame offsets:
#	150
#	25966
#	42922
#	58347
#	75325
#	94247
#	110149
#	124430
#	141863
#	156822
#
# Disc length: 2437 seconds
#
# Revision: 1
# Processed by: cddbd v1.5.2PL0 Copyright (c) Steve Scherf et al.
# Submitted via: EasyCDDAExtractor 16.0.6.1
#
DISCID=8b09830a
DTITLE=The Facts Of Life - Just The Facts The Complete Kayvette Recordings 197
DTITLE=5 - 1978 Disc 2
DYEAR=2008
DGENRE=Soul
TTITLE0=Did He Make Love To You?
TTITLE1=We Can't Hide It Anymore 
TTITLE2=He Ain't You 
TTITLE3=Do You Wanna Make Love 
TTITLE4=I'm Way Ahead Of You
TTITLE5=You Always Get Your Way
TTITLE6=It's Only A Matter Of Time
TTITLE7=This Ain't No Time To Sleep Apart
TTITLE8=Dr Feelgood
TTITLE9=Did He Make Love To You Pts 1 and 2 (single version)
EXTD=
EXTT0=
EXTT1=
EXTT2=
EXTT3=
EXTT4=
EXTT5=
EXTT6=
EXTT7=
EXTT8=
EXTT9=
PLAYORDER=
